<svg width="200" height="200" viewBox="0 0 200 200" fill="none" xmlns="http://www.w3.org/2000/svg">
<path d="M200 100C200 155.228 155.228 200 100 200C44.7715 200 0 155.228 0 100C0 44.7715 44.7715 0 100 0C155.228 0 200 44.7715 200 100ZM121.455 43.0078C121.259 42.9712 121.062 43.0596 120.967 43.2422C118.462 47.7236 113.618 50.5004 108.499 50.1157C102.83 49.6898 97.1818 49.6858 91.5692 50.1037C86.4422 50.4855 81.5275 47.7236 79.0078 43.2422C78.906 43.0667 78.7086 42.9787 78.5195 43.0078C67.8061 44.8663 57.5508 48.1155 47.9873 52.5273C47.9075 52.5639 47.8342 52.6229 47.7832 52.7031C28.3355 81.9122 23.0073 110.405 25.6201 138.545C25.6347 138.684 25.7082 138.816 25.8174 138.896C38.6491 148.371 51.0808 154.123 63.2793 157.935C63.4755 157.993 63.6791 157.92 63.8027 157.76C66.6849 153.801 69.2614 149.622 71.4668 145.226C71.5971 144.969 71.4667 144.662 71.2051 144.56C67.122 143.001 63.2419 141.106 59.501 138.955C59.2029 138.78 59.1812 138.355 59.4502 138.15C60.2362 137.558 61.023 136.942 61.7725 136.321C61.9107 136.204 62.0999 136.182 62.2598 136.255C86.8095 147.523 113.39 147.523 137.649 136.255C137.809 136.175 137.999 136.204 138.137 136.314C138.887 136.936 139.672 137.557 140.466 138.15C140.734 138.355 140.72 138.78 140.422 138.955C136.689 141.149 132.802 143.008 128.712 144.56C128.443 144.662 128.325 144.969 128.457 145.233C130.713 149.616 133.282 153.794 136.113 157.76C136.23 157.928 136.441 158.001 136.637 157.942C148.894 154.131 161.326 148.379 174.157 138.904C174.267 138.824 174.34 138.691 174.354 138.56C177.484 106.029 169.114 77.7707 152.177 52.7178C152.134 52.639 152.07 52.5743 151.985 52.5372C151.983 52.5362 151.982 52.5331 151.984 52.5312C151.986 52.5293 151.985 52.5263 151.983 52.5252C142.421 48.1143 132.174 44.866 121.455 43.0078ZM75.1211 91.0146C82.6244 91.0152 88.7239 97.9 88.6006 106.211C88.6006 114.589 82.6247 121.409 75.1211 121.409C67.7263 121.409 61.6416 114.589 61.6416 106.211C61.642 97.8338 67.6173 91.0146 75.1211 91.0146ZM124.97 91.0146C132.473 91.0149 138.572 97.8998 138.449 106.211C138.449 114.589 132.54 121.409 124.97 121.409C117.575 121.409 111.491 114.589 111.491 106.211C111.492 97.8339 117.466 91.0148 124.97 91.0146Z" fill="#505050" fill-opacity="0.38"/>
</svg>
