<svg width="200" height="200" viewBox="0 0 200 200" fill="none" xmlns="http://www.w3.org/2000/svg">
<path d="M200 100C200 155.228 155.228 200 100 200C44.7715 200 0 155.228 0 100C0 44.7715 44.7715 0 100 0C155.228 0 200 44.7715 200 100ZM120.396 45.0078C120.207 44.9727 120.019 45.0572 119.928 45.2324C117.528 49.5248 112.889 52.1846 107.985 51.8161C102.555 51.408 97.144 51.4042 91.7673 51.8046C86.8562 52.1703 82.1479 49.5251 79.7344 45.2324C79.6368 45.0642 79.4479 44.9798 79.2666 45.0078C69.0037 46.7881 59.1798 49.9006 50.0186 54.127C49.9421 54.1621 49.872 54.218 49.8232 54.2949C31.194 82.2749 26.0908 109.569 28.5938 136.524C28.6077 136.657 28.6769 136.784 28.7812 136.861C41.073 145.937 52.9818 151.448 64.667 155.099C64.8551 155.155 65.0504 155.084 65.1689 154.931C67.9299 151.139 70.3981 147.137 72.5107 142.925C72.6361 142.679 72.5107 142.384 72.2598 142.286C68.3486 140.793 64.6322 138.978 61.0488 136.918C60.763 136.75 60.7421 136.342 61 136.146C61.7529 135.579 62.5056 134.989 63.2236 134.395C63.3561 134.282 63.5381 134.26 63.6914 134.33C87.2084 145.124 112.67 145.124 135.909 134.33C136.062 134.254 136.243 134.282 136.375 134.388C137.093 134.983 137.846 135.579 138.606 136.146C138.864 136.343 138.851 136.75 138.564 136.918C134.989 139.02 131.265 140.8 127.347 142.286C127.089 142.384 126.976 142.679 127.103 142.932C129.264 147.13 131.725 151.132 134.438 154.931C134.549 155.091 134.751 155.161 134.938 155.105C146.68 151.454 158.588 145.944 170.88 136.868C170.985 136.791 171.055 136.664 171.069 136.538C174.067 105.376 166.049 78.3073 149.824 54.3086C149.783 54.2331 149.722 54.1713 149.641 54.1359C149.638 54.1349 149.638 54.1319 149.64 54.1303C149.642 54.1287 149.641 54.1258 149.639 54.1248C140.479 49.8995 130.663 46.7878 120.396 45.0078ZM76.0107 90.9941C83.1989 90.9942 89.0414 97.5899 88.9229 105.552C88.9228 113.578 83.1989 120.109 76.0107 120.109C68.9271 120.109 63.0987 113.578 63.0986 105.552C63.0986 97.5268 68.8225 90.9941 76.0107 90.9941ZM123.763 90.9941C130.951 90.9944 136.793 97.59 136.675 105.552C136.675 113.578 131.014 120.109 123.763 120.109C116.679 120.109 110.851 113.578 110.851 105.552C110.851 97.5268 116.575 90.9941 123.763 90.9941Z" fill="#505050"/>
</svg>
