<svg width="200" height="200" viewBox="0 0 200 200" fill="none" xmlns="http://www.w3.org/2000/svg">
<mask id="mask0_334_52" style="mask-type:luminance" maskUnits="userSpaceOnUse" x="0" y="0" width="200" height="200">
<path d="M200 0H0V200H200V0Z" fill="white"/>
</mask>
<g mask="url(#mask0_334_52)">
<path fill-rule="evenodd" clip-rule="evenodd" d="M100 0C44.75 0 0 44.75 0 99.9999C0 144.25 28.625 181.625 68.375 194.875C73.375 195.75 75.25 192.75 75.25 190.125C75.25 187.75 75.125 179.875 75.125 171.5C50 176.125 43.5 165.375 41.5 159.75C40.375 156.875 35.5 148 31.25 145.625C27.75 143.75 22.75 139.125 31.125 139C39 138.875 44.625 146.25 46.5 149.25C55.5 164.375 69.875 160.125 75.625 157.5C76.5 151 79.125 146.625 82 144.125C59.75 141.625 36.5 133 36.5 94.75C36.5 83.875 40.375 74.875 46.75 67.875C45.75 65.375 42.25 55.125 47.75 41.375C47.75 41.375 56.125 38.75 75.25 51.625C83.25 49.375 91.75 48.25 100.25 48.25C108.75 48.25 117.25 49.375 125.25 51.625C144.375 38.625 152.751 41.375 152.751 41.375C158.251 55.125 154.751 65.375 153.751 67.875C160.126 74.875 164.001 83.75 164.001 94.75C164.001 133.125 140.625 141.625 118.375 144.125C122 147.25 125.125 153.25 125.125 162.625C125.125 176 125 186.75 125 190.125C125 192.75 126.876 195.875 131.876 194.875C171.376 181.625 200.001 144.125 200.001 99.9999C200.001 44.75 155.25 0 100 0Z" fill="#505050"/>
</g>
</svg>
