<svg width="24" height="24" viewBox="0 0 24 24" fill="none" xmlns="http://www.w3.org/2000/svg">
  <path d="M10.3 2.85C10.63 1.72 12.23 1.72 12.56 2.85L12.84 3.79C13.03 4.43 13.72 4.76 14.35 4.55L15.27 4.24C16.38 3.87 17.51 5 17.14 6.11L16.83 7.03C16.62 7.66 16.95 8.35 17.59 8.54L18.52 8.82C19.65 9.15 19.65 10.75 18.52 11.08L17.59 11.36C16.95 11.55 16.62 12.24 16.83 12.87L17.14 13.79C17.51 14.9 16.38 16.03 15.27 15.66L14.35 15.35C13.72 15.14 13.03 15.47 12.84 16.11L12.56 17.04C12.23 18.17 10.63 18.17 10.3 17.04L10.02 16.11C9.83 15.47 9.14 15.14 8.51 15.35L7.59 15.66C6.48 16.03 5.35 14.9 5.72 13.79L6.03 12.87C6.24 12.24 5.91 11.55 5.27 11.36L4.34 11.08C3.21 10.75 3.21 9.15 4.34 8.82L5.27 8.54C5.91 8.35 6.24 7.66 6.03 7.03L5.72 6.11C5.35 5 6.48 3.87 7.59 4.24L8.51 4.55C9.14 4.76 9.83 4.43 10.02 3.79L10.3 2.85Z" stroke="currentColor" stroke-width="1.5"/>
  <circle cx="11.43" cy="9.95" r="2.6" stroke="currentColor" stroke-width="1.5"/>
</svg>
